# xmcd CD database file
#
# Track frame offsets:
#	150
#	17155
#	35579
#	55382
#	84556
#	101880
#	136110
#	153180
#	171249
#	190767
#	212667
#	243801
#	266516
#	287525
#	309990
#
# Disc length: 4422 seconds
#
# Revision: 0
# Processed by: cddbd v1.5.2PL0 Copyright (c) Steve Scherf et al.
# Submitted via: CDex 1.70beta2
#
DISCID=c611440f
DTITLE=Various Artist - New Age
DYEAR=2002
DGENRE=New Age
TTITLE0=Era - Ameno
TTITLE1=Era - Mother
TTITLE2=Enigma - Sadness
TTITLE3=Enigma - Push The Limits
TTITLE4=Era - Divano
TTITLE5=Enigma - The Rivers Of Belief
TTITLE6=Era - Enae Volare Mezzo
TTITLE7=Enigma - The Screen
TTITLE8=Enigma - Return To Innocence
TTITLE9=El Bosco - Nirvana
TTITLE10=Enigma - The Eyes Of Truth
TTITLE11=Enigma - The Child In Us
TTITLE12=Era - Omen Sore
TTITLE13=Enigma - Why?
TTITLE14=Era - Hymme
EXTD=YEAR: 2002
EXTT0=
EXTT1=
EXTT2=
EXTT3=
EXTT4=
EXTT5=
EXTT6=
EXTT7=
EXTT8=
EXTT9=
EXTT10=
EXTT11=
EXTT12=
EXTT13=
EXTT14=
PLAYORDER=
